<?xml version="1.0" standalone="no"?>
<!DOCTYPE svg PUBLIC "-//W3C//DTD SVG 20010904//EN"
 "http://www.w3.org/TR/2001/REC-SVG-20010904/DTD/svg10.dtd">
<svg version="1.0" xmlns="http://www.w3.org/2000/svg"
 width="1417.000000pt" height="1417.000000pt" viewBox="0 0 1417.000000 1417.000000"
 preserveAspectRatio="xMidYMid meet">
<metadata>
Created by potrace 1.14, written by Peter Selinger 2001-2017
</metadata>
<g transform="translate(0.000000,1417.000000) scale(0.100000,-0.100000)"
fill="#000000" stroke="none">
<path d="M4565 10428 c-16 -6 -38 -14 -47 -19 -10 -5 -25 -9 -33 -9 -15 0 -24
-3 -81 -34 -18 -9 -51 -26 -75 -38 -24 -13 -46 -26 -49 -29 -3 -3 -25 -20 -50
-38 -99 -71 -198 -184 -266 -307 -44 -78 -50 -94 -83 -195 l-21 -67 0 -2612 0
-2612 21 -67 c81 -251 244 -455 464 -577 81 -45 107 -56 175 -74 25 -6 53 -16
62 -21 24 -12 4252 -12 4276 0 9 5 37 15 62 21 50 14 82 26 121 46 15 8 46 24
70 36 24 13 46 26 49 29 3 3 30 24 60 46 97 72 191 182 256 298 44 80 50 95
83 196 l21 67 0 2616 c0 1536 -4 2623 -9 2634 -5 9 -14 37 -21 62 -33 123
-151 312 -256 411 -109 102 -253 186 -374 219 -25 6 -53 16 -62 21 -25 13
-4254 10 -4293 -3z m2637 -977 c20 0 39 -5 43 -11 3 -5 24 -10 45 -10 21 0 42
-4 45 -10 3 -5 22 -10 41 -10 19 0 42 -4 52 -9 28 -14 85 -33 115 -38 15 -3
27 -9 27 -14 0 -5 7 -9 17 -9 22 0 93 -32 93 -42 0 -4 6 -8 14 -8 17 0 51 -17
93 -47 17 -13 34 -23 38 -23 11 0 109 -71 113 -82 2 -4 8 -8 14 -8 37 0 368
-338 368 -377 0 -7 4 -13 8 -13 5 0 15 -12 22 -27 8 -16 20 -35 27 -44 24 -30
103 -182 103 -200 0 -10 5 -21 10 -24 6 -3 10 -14 10 -24 0 -10 7 -24 15 -31
8 -7 15 -25 15 -41 0 -16 5 -29 10 -29 6 0 10 -16 10 -35 0 -19 4 -43 9 -53 5
-9 17 -53 26 -96 21 -95 24 -398 5 -456 -7 -19 -16 -53 -20 -75 -5 -22 -12
-53 -15 -70 -8 -38 -15 -57 -49 -125 -14 -30 -26 -61 -26 -67 0 -7 -4 -13 -10
-13 -5 0 -10 -8 -10 -18 0 -9 -11 -29 -25 -44 -14 -15 -25 -32 -25 -38 0 -19
-48 -60 -70 -60 -11 0 -20 5 -20 10 0 6 -6 10 -13 10 -7 0 -24 11 -39 25 -15
14 -31 25 -36 25 -13 0 -51 20 -89 48 -17 12 -35 22 -41 22 -5 0 -39 16 -76
35 -37 19 -76 35 -86 35 -10 0 -22 5 -25 10 -3 6 -14 10 -24 10 -10 0 -32 7
-49 16 l-31 15 42 42 c54 55 98 112 117 152 8 18 21 39 28 48 8 9 11 20 8 25
-3 6 1 15 9 22 8 7 15 24 15 39 0 15 4 31 9 37 28 29 9 434 -20 434 -5 0 -9 9
-9 19 0 11 -6 32 -14 48 -8 15 -25 51 -37 78 -23 49 -78 130 -129 190 -53 63
-165 165 -181 165 -5 0 -9 5 -9 10 0 6 -7 10 -15 10 -8 0 -15 4 -15 8 0 5 -18
17 -40 28 -22 10 -40 22 -40 27 0 4 -7 7 -15 7 -8 0 -23 4 -33 9 -17 9 -65 30
-112 49 -14 6 -38 14 -55 18 -16 4 -592 10 -1278 13 l-1248 6 -2 268 c-1 170
2 269 8 271 8 4 2260 1 2407 -3z m18 -1101 c0 -5 12 -10 27 -10 39 0 163 -101
163 -134 0 -8 3 -16 8 -18 14 -6 42 -106 42 -153 0 -42 -23 -105 -42 -113 -5
-2 -8 -10 -8 -18 0 -8 -5 -14 -10 -14 -6 0 -23 -11 -38 -25 -15 -14 -38 -25
-52 -25 -14 0 -30 -4 -36 -10 -6 -6 -311 -11 -854 -12 l-845 -3 -7 -60 c-12
-98 -30 -324 -31 -405 l-2 -75 1020 -6 c970 -6 1078 -9 1130 -36 11 -5 46 -16
78 -23 32 -7 60 -17 63 -22 3 -4 18 -8 33 -8 16 0 34 -7 41 -15 7 -8 18 -15
25 -15 12 0 71 -26 115 -51 8 -4 38 -20 67 -35 29 -14 57 -32 64 -40 6 -8 18
-14 25 -14 8 0 14 -4 14 -9 0 -5 16 -16 35 -25 20 -10 41 -26 48 -37 6 -10 17
-19 24 -19 7 0 13 -4 13 -10 0 -5 5 -10 11 -10 16 0 185 -167 220 -218 17 -23
41 -53 55 -67 13 -13 24 -28 24 -32 0 -5 10 -19 23 -33 12 -14 36 -51 52 -82
17 -32 33 -58 38 -58 4 0 7 -7 7 -15 0 -9 9 -25 20 -37 11 -12 20 -31 20 -43
0 -12 7 -30 15 -41 8 -10 15 -29 15 -41 0 -13 5 -23 10 -23 6 0 10 -15 10 -34
0 -18 6 -38 13 -44 7 -6 14 -25 15 -43 1 -18 6 -37 11 -43 10 -13 19 -65 27
-156 3 -36 10 -69 14 -74 5 -5 3 -19 -3 -33 -8 -19 -8 -29 2 -45 10 -17 10
-25 0 -44 -10 -19 -9 -26 2 -40 11 -13 11 -18 2 -21 -9 -3 -13 -28 -13 -78 0
-41 -4 -77 -10 -80 -5 -3 -10 -21 -10 -38 -1 -31 -31 -131 -44 -144 -3 -3 -6
-13 -6 -22 0 -18 -71 -164 -82 -169 -5 -2 -8 -10 -8 -18 0 -8 -4 -14 -10 -14
-5 0 -10 -7 -10 -15 0 -9 -16 -34 -36 -55 -20 -22 -44 -50 -53 -62 -23 -34
-110 -118 -121 -118 -6 0 -10 -4 -10 -10 0 -5 -4 -10 -9 -10 -6 0 -22 -11 -37
-25 -15 -14 -31 -25 -36 -25 -5 0 -19 -9 -31 -21 -20 -18 -44 -31 -117 -61
-45 -19 -95 -41 -112 -49 -10 -5 -29 -9 -42 -9 -14 0 -28 -4 -31 -10 -3 -5
-24 -10 -45 -10 -21 0 -42 -4 -45 -10 -8 -14 -3211 -14 -3220 0 -4 7 -8 363
-5 510 0 6 511 10 1496 9 823 0 1499 2 1502 5 3 3 21 6 40 6 35 0 90 14 124
31 10 5 23 9 29 9 15 0 169 102 169 112 0 4 7 8 15 8 8 0 15 3 15 8 0 4 15 23
33 43 48 55 63 73 70 89 4 8 11 22 16 30 19 33 51 107 57 135 4 17 10 35 15
40 4 6 9 39 10 75 2 36 7 71 12 77 5 7 6 23 2 35 -4 13 -9 54 -11 92 -2 39 -8
74 -14 80 -5 5 -10 23 -10 39 0 16 -7 43 -16 60 -31 60 -34 67 -34 87 0 11 -4
20 -8 20 -5 0 -23 29 -41 65 -18 36 -36 65 -40 65 -4 0 -15 13 -24 29 -24 41
-159 181 -175 181 -6 0 -12 5 -12 10 0 6 -5 10 -10 10 -10 0 -22 8 -55 38 -7
6 -18 12 -24 12 -6 0 -11 5 -11 10 0 6 -7 10 -16 10 -8 0 -30 11 -48 25 -18
14 -40 25 -49 25 -9 0 -19 5 -22 10 -3 6 -17 10 -30 10 -13 0 -26 4 -29 9 -3
4 -25 11 -48 15 -23 4 -47 11 -53 16 -6 5 -466 11 -1085 15 -591 3 -1104 8
-1140 11 -70 6 -167 30 -176 45 -3 5 -14 9 -25 9 -10 0 -19 5 -19 10 0 6 -7
10 -15 10 -19 0 -125 108 -125 126 0 8 -4 14 -8 14 -21 0 -68 204 -52 225 4 6
8 51 9 100 1 50 6 109 12 133 5 24 7 47 4 52 -3 5 -2 11 3 14 4 2 9 60 11 128
1 67 6 125 10 128 4 3 9 56 10 118 1 63 6 125 12 138 5 14 9 36 9 49 0 36 55
148 92 187 42 44 102 88 122 88 8 0 18 5 21 10 3 6 21 10 40 10 19 0 37 5 40
10 4 7 325 10 931 10 609 0 924 -3 924 -10z m380 -2197 c58 -28 128 -94 149
-140 7 -16 17 -36 22 -45 12 -25 11 -178 -1 -178 -5 0 -10 -7 -10 -15 0 -20
-69 -95 -87 -95 -7 0 -13 -4 -13 -10 0 -7 -433 -10 -1278 -10 -842 0 -1281 -3
-1288 -10 -6 -6 -61 -12 -124 -15 -92 -3 -118 -1 -131 11 -9 8 -20 14 -25 13
-5 -1 -13 -1 -19 0 -7 1 -11 375 -5 519 0 1 620 2 1377 2 l1378 0 55 -27z"/>
</g>
</svg>
